<svg width="754" height="777" viewBox="0 0 754 777" fill="none" xmlns="http://www.w3.org/2000/svg">
<path fill-rule="evenodd" clip-rule="evenodd" d="M232.368 250.269C239.992 256.967 248.93 264.82 268.209 258.112C280.815 253.727 297.106 225.154 315.283 193.274C341.852 146.674 372.452 93.005 401.462 97.4761C436.458 102.869 434.303 122.242 432.646 137.142C431.482 147.594 430.566 155.845 442.885 155.528C455.433 155.205 467.643 140.459 481.815 123.346C501.389 99.7072 524.703 71.5539 557.806 70.6637C581.147 70.036 580.779 80.0936 580.405 90.2931C580.167 96.8126 579.925 103.39 585.872 107.272C591.73 111.096 606.463 109.76 623.397 108.224C650.547 105.761 683.36 102.784 694.36 119.734C704.028 134.634 691.709 149.444 679.903 163.639C669.901 175.663 660.266 187.245 664.672 198.068C668.265 206.899 675.642 211.874 682.875 216.751C694.702 224.727 706.14 232.44 699.999 256.329C693.506 281.589 654.444 288.431 617.828 294.843C587.153 300.213 558.197 305.285 551.545 320.632C547.373 330.257 554.293 334.74 562.047 339.763C571.312 345.764 581.766 352.536 575.903 369.778C562.2 410.086 516.437 410.086 473.487 410.086C436.622 410.086 401.829 410.088 391.163 435.576C385.004 450.292 394.325 452.891 404.553 455.74C417.073 459.23 430.95 463.098 419.451 490.037C397.445 541.59 315.354 542.049 240.204 542.47C212.648 542.626 186.026 542.774 163.642 545.437C161.087 545.738 158.821 547.205 157.482 549.402C136.884 583.199 122.276 620.373 106.694 660.023C103.271 668.735 99.8003 677.565 96.2094 686.505C91.4622 698.325 78.0328 704.058 66.2139 699.311C54.395 694.564 48.6622 681.134 53.4092 669.314C71.0902 625.296 91.4878 584.817 113.792 547.657C150.191 480.626 221.944 398.388 297.822 336.605C365.336 280.395 429.808 238.324 504.845 206.399C514.238 202.403 511.45 191.418 501.643 194.252C435.094 213.484 376.261 251.632 315.283 290.075C248.958 331.889 193.376 388.433 159.174 429.544C153.143 436.793 139.955 430.832 141.854 421.597C156.708 349.341 172.039 283.032 194.513 258.78C215.849 235.755 223.15 242.169 232.368 250.269Z" fill="black"/>
</svg>
