<svg width="253" height="222" viewBox="0 0 253 222" fill="none" xmlns="http://www.w3.org/2000/svg">
<path d="M165.885 13.204C166.664 12.599 167.717 12.296 168.668 12.673C169.553 13.073 169.811 14.075 170.24 14.86C171.718 17.664 172.74 20.683 174.253 23.474C176.326 28.551 177.202 33.995 178.66 39.258C178.775 39.96 179.478 40.244 179.996 40.614C181.711 41.695 183.24 43.049 184.57 44.576C188.644 48.464 191.612 53.616 192.413 59.219C193.267 62.758 192.168 66.391 192.685 69.944C193.606 72.383 193.864 74.988 194.592 77.479C195.214 81.381 196.255 85.272 195.988 89.258C195.81 91.781 195.699 94.342 195.084 96.809C193.496 101.138 191.651 105.494 188.505 108.946C185.168 112.973 180.72 115.833 176.514 118.86C175.452 119.672 174.19 120.171 173.065 120.885C170.827 122.303 168.655 123.903 166.141 124.824C162.927 126.075 159.805 127.571 156.52 128.644C153.415 129.571 150.33 130.582 147.293 131.712C142.086 133.159 136.818 134.672 131.372 134.778C128.63 135.122 125.911 135.696 123.141 135.801C116.551 135.917 109.86 136.151 103.399 134.629C100.884 133.843 98.396 132.979 95.858 132.275C91.281 130.337 86.916 127.759 83.372 124.246C81.0284 122.266 78.8132 120.139 76.74 117.877C75.681 116.797 75.217 115.332 74.511 114.03C73.65 114.213 72.736 114.642 71.888 114.163C70.845 113.69 69.586 113.371 68.949 112.336C66.806 109.162 65.183 105.691 63.711 102.171C62.58 99.912 61.501 97.609 60.875 95.15C59.969 91.376 58.977 87.542 59.227 83.629C59.375 82.579 59.703 81.561 59.77 80.498C58.61 77.711 55.987 75.328 54.79 72.555C52.232 66.978 49.811 61.325 47.978 55.469C47.169 52.708 46.426 49.957 46.362 47.053C46.673 45.961 47.007 44.518 48.112 43.874C49.28 43.491 50.542 43.804 51.727 43.973C54.483 44.574 57.311 44.733 60.08 45.255C62.694 45.726 65.159 46.756 67.737 47.367C68.714 45.84 69.415 44.142 70.574 42.73C72.233 40.421 74.051 38.235 75.82 36.008C77.375 34.016 79.305 32.78 81.095 31.022C82.038 30.139 83.108 29.043 84.169 28.283C86.035 26.962 87.639 25.262 89.747 24.303C91.437 23.549 92.876 22.342 94.58 21.617C96.996 20.664 98.826 18.756 100.996 17.391C102.914 15.641 105.341 14.473 107.884 13.955C109.595 13.857 111.336 13.738 113.031 13.976C115.261 14.287 116.71 14.961 118.562 15.393C119.915 15.29 121.238 14.987 122.628 14.997C125.2 15.015 127.357 15.138 129.667 15.663C132.47 16.095 135.136 17.088 137.883 17.738C140.638 18.32 143.296 19.481 145.806 20.794C147.384 21.617 148.943 22.29 150.428 23.284C151.514 23.982 152.472 24.861 153.597 25.511C154.691 24.005 156.159 22.834 157.307 21.373C158.314 20.102 159.699 19.204 160.728 17.954C162.239 16.165 164.02 14.621 165.885 13.204Z" fill="black"/>
<path d="M229.06 21.684C230.575 20.929 232.287 20.901 233.942 20.941C234.172 21.358 234.641 21.707 234.617 22.221C234.497 24.612 234.104 26.981 233.841 29.356C233.982 34.271 235.233 39.094 235.243 44.021C235.317 48.158 235.315 52.87 232.365 56.135C231.553 56.994 231.518 58.226 231.059 59.259C229.949 61.486 228.299 63.38 227.084 65.545C226.383 66.837 225.04 67.589 224.203 68.774C224.008 70.856 224.224 72.962 224 75.047C223.626 77.534 223.729 80.067 223.278 82.545C222.93 85.682 222.324 88.807 222.445 91.971C221.851 92.317 221.24 92.636 220.621 92.929C220.164 96.287 220.053 99.681 219.714 103.051C218.768 109.289 217.36 115.44 216.076 121.61C218.623 122.807 220.931 124.59 222.525 126.924C223.025 127.662 223.615 128.332 224.146 129.045C225.143 130.381 225.52 132.029 226.081 133.566C227.449 137.726 227.281 142.196 226.574 146.459C225.951 149.178 224.548 151.627 223.404 154.147C221.982 156.714 219.904 158.95 217.331 160.4C214.639 161.948 211.959 163.77 208.803 164.179C206.571 164.985 204.18 164.506 201.868 164.519C198.697 164.116 195.521 163.415 192.609 162.074C191.239 161.249 189.609 160.862 188.421 159.758C187.106 158.562 185.662 157.461 184.729 155.923C183.228 153.354 182.078 150.548 181.601 147.601C181.112 144.314 181.082 140.974 181.512 137.679C182.355 133.193 184.158 128.7 187.569 125.531C189.786 123.406 191.876 120.889 194.831 119.783C196.932 119.222 199.048 118.69 201.184 118.263C201.042 114.865 201.294 111.496 201.422 108.107C201.558 105.181 202.126 102.302 202.714 99.439C203.121 96.076 204.511 92.504 205.275 89.216C205.618 88.237 205.068 87.614 205.127 86.625C205.349 83.886 206.393 81.314 207.131 78.692C208.622 73.459 210.565 68.315 213.361 63.622C211.896 59.875 211.888 55.798 211.621 51.845C211.674 50.552 211.941 49.204 211.273 48.008C210.756 45.498 211.554 42.952 212.351 40.58C212.892 39.099 213.452 37.621 214.143 36.206C214.779 34.87 215.873 33.844 216.83 32.737C218.779 30.157 220.982 27.779 223.308 25.537C224.971 23.915 227.002 22.735 229.06 21.684Z" fill="black"/>
<path d="M149.771 73.76C151.504 72.819 153.721 73.719 154.712 75.311C155.347 76.459 155.744 77.749 155.941 79.042C155.912 80.697 155.589 82.413 154.778 83.879C154.084 85.202 152.406 85.817 151.045 85.109C149.257 84.17 147.381 82.588 147.289 80.416C147.219 79.008 146.972 77.547 147.416 76.172C147.875 75.121 148.739 74.256 149.771 73.76ZM122.3 79.124C124.117 78.603 125.879 79.678 126.972 81.055C128.038 83.535 128.481 86.458 127.437 89.015C126.126 91.068 122.723 91.973 120.811 90.243C119.16 88.403 118.96 85.768 119.166 83.417C119.229 81.531 120.619 79.858 122.3 79.124ZM24.003 88.577C25.908 87.099 28.174 85.764 30.671 85.851C31.725 86.497 32.603 87.578 32.656 88.854C32.994 91.992 33.218 95.138 33.213 98.294C33.559 101.393 33.41 104.515 33.69 107.62C35.58 107.668 37.473 107.734 39.348 107.439C39.43 103.025 39.33 98.638 39.262 94.215C39.229 92.281 38.657 89.578 39.685 87.515C42.281 86.709 45.09 87.297 47.529 88.342C51.282 90.49 53.999 94.1 55.671 98.024C56.348 100.17 57.296 102.236 57.771 104.45C58.16 106.599 58.931 108.778 58.367 110.975C58.109 113.502 56.877 115.743 55.929 118.051C55.528 118.923 54.911 119.666 54.345 120.431C56.092 123.307 57.841 126.204 59.952 128.837C62.505 131.632 64.616 134.781 67.069 137.66C68.854 137.185 70.663 136.795 72.446 136.306C74.803 135.854 77.223 136.037 79.612 136.011C81.854 135.963 83.817 137.185 85.898 137.823C89.086 139.143 91.989 141.266 94.168 143.934C96.08 146.582 97.971 149.33 98.965 152.473C99.254 153.42 99.763 154.293 99.941 155.278C100.358 158.489 101.195 161.713 100.746 164.973C100.551 168.695 99.05 172.174 97.514 175.519C98.401 176.514 99.324 177.495 100.432 178.25C102.387 179.581 103.828 181.475 105.413 183.193C106.882 184.819 108.11 186.429 109.006 188.461C109.629 189.879 109.778 191.46 110.012 192.952C110.319 194.978 109.705 197.908 108.12 199.275C106.967 200.295 106.032 201.224 104.527 201.866C102.441 202.748 99.709 203.15 97.242 202.517C95.513 201.931 93.784 201.3 92.197 200.382C89.527 198.671 87.389 196.264 85.496 193.748C84.732 192.688 83.891 191.661 83.339 190.465C82.986 189.786 82.659 188.98 81.908 188.654C79.5 189.063 77.16 189.953 74.697 189.975C72.75 189.942 70.836 190.436 68.885 190.275C66.668 190.067 64.399 190.03 62.281 189.254C59.021 188.111 56.211 186.039 53.478 183.979C51.65 182.1 50.082 179.928 48.973 177.545C48.404 175.785 47.625 174.043 47.562 172.166C47.418 169.153 46.867 166.154 47.081 163.13C47.285 158.706 48.801 154.471 50.809 150.56C49.171 148.322 47.444 146.149 45.743 143.961C43.199 140.194 39.884 137.039 37.098 133.454C35.903 131.828 34.371 130.491 33.013 129.008C31.927 127.932 30.272 128.356 28.948 127.874C26.413 127.027 24.319 125.299 22.291 123.625C19.318 120.982 17.63 117.292 16.104 113.71C14.969 110.762 14.757 107.558 15.088 104.441C15.69 100.744 16.423 96.898 18.576 93.744C20.073 91.733 21.936 90 24.003 88.577Z" fill="black"/>
<path d="M126.972 81.055C125.879 79.678 124.117 78.603 122.3 79.124C120.619 79.858 119.229 81.531 119.166 83.417C118.96 85.768 119.16 88.403 120.811 90.243C122.723 91.973 126.126 91.068 127.437 89.015C128.481 86.458 128.038 83.535 126.972 81.055Z" fill="black"/>
<path d="M165.146 20.749C165.768 19.948 166.531 19.274 167.309 18.63C167.965 19.909 168.627 21.203 169.03 22.591C169.635 24.892 170.458 27.129 171.089 29.423C172.132 32.328 172.704 35.366 173.359 38.376C171.927 38.059 170.439 38.015 169.028 37.612C167.497 36.293 166.148 34.779 164.849 33.237C162.974 31.454 161.027 29.724 158.777 28.417C160.77 25.756 163.094 23.363 165.146 20.749Z" fill="white"/>
<path d="M106.096 20.922C107.69 20.061 109.526 19.811 111.297 19.582C112.609 19.402 113.88 19.903 115.176 20.056C118.518 20.44 121.752 21.66 124.569 23.473C127.68 25.85 131.12 27.794 133.996 30.472C136.371 32.733 138.819 34.935 140.912 37.471C137.923 37.497 135.011 38.184 132.084 38.716C130.542 39.02 129.026 39.591 127.44 39.581C125.916 37.829 124.364 36.106 123.037 34.199C119.99 31.298 116.972 28.263 113.271 26.168C111.297 25.062 109.067 24.495 106.831 24.251C106.177 24.156 105.632 24.479 105.198 24.932C107.651 25.97 110.271 26.731 112.389 28.411C114.567 30.209 116.782 32.039 118.407 34.373C120.016 36.627 121.899 38.684 123.328 41.066C116.23 44.247 110.277 49.38 104.694 54.69C102.116 57.031 99.762 59.659 97.923 62.623C96.541 64.567 95.13 66.501 94.034 68.627C92.914 70.904 91.348 72.95 90.42 75.331C89.541 77.576 87.895 79.387 86.578 81.384C85.812 82.628 84.65 83.548 83.682 84.628C80.941 87.63 78.194 90.706 76.298 94.327C74.133 97.981 72.575 101.96 71.401 106.036C70.003 102.274 68.163 98.706 66.597 95.017C65.635 92.361 65.537 89.502 65.354 86.713C66.596 87.427 67.754 88.324 69.103 88.83C70.475 89.109 72.086 89.168 73.182 88.142C74.883 86.689 75.731 84.538 77.041 82.769C78.76 80.534 80.047 78.021 81.527 75.635C83.223 72.896 84.998 70.214 86.714 67.489C88.709 64.932 91.067 62.621 92.691 59.795C92.6512 59.645 92.6078 59.4959 92.561 59.348C91.134 58.189 89.433 57.421 87.856 56.491C85.2538 54.967 82.6291 53.4815 79.983 52.035C77.976 51.112 75.887 50.376 73.79 49.694C74.6797 48.2175 75.5521 46.7308 76.407 45.234C80.511 38.755 86.417 33.529 93.063 29.733C95.52 28.174 97.999 26.648 100.542 25.238C102.428 23.851 104.158 22.245 106.096 20.922ZM127.699 20.42C130.583 20.269 133.273 21.462 135.928 22.411C139.429 23.542 142.89 24.865 146.147 26.59C149.237 28.528 152.451 30.277 155.49 32.291C157.155 33.698 159.13 34.7 160.69 36.237C155.758 36.507 150.803 36.374 145.889 36.878C144.535 35.116 142.883 33.632 141.305 32.081C138.973 29.397 136.389 26.916 133.525 24.805C131.753 23.123 129.551 22 127.699 20.42Z" fill="white"/>
<path d="M219.606 36.893C222.453 33.063 225.795 29.629 229.49 26.601C229.275 29.206 228.887 31.825 229.295 34.432C229.769 37.467 229.713 40.539 230.035 43.585C230.307 46.122 230.302 48.723 229.541 51.182C228.062 50.026 226.334 49.142 225.141 47.663C224.294 46.671 223.12 45.591 221.708 45.834C219.763 46.286 218.076 47.437 216.146 47.933C215.942 46.368 216.186 44.77 216.803 43.318C217.715 41.171 218.249 38.833 219.606 36.893Z" fill="white"/>
<path d="M157.486 42.002C161.381 41.644 165.244 42.453 169.123 42.653C171.031 42.737 172.726 43.307 174.635 43.956C177.754 45.017 180.432 46.982 182.468 49.467C185.315 53.564 187.731 58.218 187.901 63.299C186.596 62.376 185.303 61.399 183.813 60.79C182.215 60.12 180.758 59.144 179.102 58.607C174.897 57.29 170.482 56.838 166.091 56.685C163.088 56.628 160.063 56.214 157.078 56.697C154.816 57.055 152.51 56.803 150.264 57.259C147.396 57.483 144.593 58.127 141.741 58.453C135.828 59.624 130.118 61.573 124.26 62.959C118.383 64.438 112.933 67.155 107.262 69.196C104.816 70.434 102.179 71.307 99.857 72.775C98.963 73.325 97.972 73.681 96.998 74.059C98.526 71.482 99.97 68.85 101.743 66.422C104.393 62.332 108.135 59.15 111.445 55.617C112.758 54.184 114.294 52.961 115.91 51.875C119.054 49.929 122.259 48.027 125.713 46.663C128.75 45.448 132.02 45.052 135.215 44.444C139.337 43.84 143.416 42.891 147.594 42.719C150.884 42.359 154.188 42.267 157.486 42.002Z" fill="white"/>
<path d="M52.167 50.442C54.18 49.836 55.881 51.338 57.841 51.447C60.663 51.749 63.32 52.821 66.119 53.229C70.877 53.926 74.873 56.754 79.158 58.71C81.385 59.577 83.486 60.757 85.806 61.379C83.75 63.819 81.827 66.363 79.956 68.947C78.629 70.779 77.507 72.842 76.394 74.902C75.534 76.488 74.88 77.922 73.899 79.3C72.632 80.987 71.612 82.835 70.41 84.562C68.492 83.078 67.214 81.019 65.74 79.146C61.572 74.733 59.994 68.732 57.119 63.526C55.318 60.456 54.848 56.848 53.324 53.654C52.83 52.623 52.522 51.522 52.167 50.442Z" fill="white"/>
<path fill-rule="evenodd" clip-rule="evenodd" d="M164.46 118.647C164.461 118.646 164.458 118.649 164.46 118.647C163.602 119.437 162.545 119.955 161.497 120.466C161.072 120.673 160.647 120.88 160.237 121.105C160.645 120.881 161.074 120.673 161.497 120.466C162.547 119.953 163.6 119.438 164.46 118.647C164.458 118.648 164.461 118.647 164.46 118.647Z" fill="white"/>
<path fill-rule="evenodd" clip-rule="evenodd" d="M125.428 128.961C125.428 128.961 125.429 128.961 125.428 128.961Z" fill="white"/>
<path d="M155.551 61.501C149.508 62.181 143.47 63.072 137.53 64.383C135.418 64.807 133.33 65.3711 131.337 66.2041L130.635 66.4044C126.806 67.4963 123.558 68.4226 119.195 69.869C118.256 70.2029 117.263 70.5453 116.275 70.8857C115.459 71.1671 114.647 71.4471 113.872 71.72C112.822 72.1622 111.769 72.5704 110.717 72.9778C107.724 74.1375 104.746 75.2913 101.912 77.208C101.246 77.6589 100.542 78.0514 99.8388 78.4436C98.7326 79.0604 97.6274 79.6767 96.672 80.519C95.7276 81.4062 94.6907 82.1782 93.6537 82.9501C92.6745 83.679 91.6953 84.4079 90.794 85.234C89.3702 86.3082 88.1663 87.6135 86.9621 88.9191C86.3581 89.574 85.754 90.229 85.122 90.855C82.537 93.52 80.673 96.767 78.904 99.994C78.0678 102.248 77.3604 104.548 76.785 106.883C77.5168 108.919 78.8118 110.684 80.0807 112.415L80.16 112.523C82.009 115.199 84.281 117.227 86.925 119.135C87.1274 118.578 87.32 118.016 87.5127 117.453C88.2109 115.415 88.9106 113.372 90.087 111.549C91.5751 108.896 93.7801 106.764 95.9508 104.666L96.086 104.535C97.179 103.605 98.367 102.924 99.857 102.756C100.913 102.735 102.224 103.992 101.386 105.007C100.877 105.518 100.34 106.002 99.802 106.486C98.8922 107.305 97.9817 108.124 97.206 109.078C93.611 112.409 91.528 117.014 90.396 121.706C91.1232 122.141 91.7925 122.604 92.4527 123.061C93.6502 123.889 94.8179 124.696 96.247 125.282C96.2904 124.966 96.331 124.648 96.3718 124.33C96.6015 122.536 96.8337 120.723 97.564 119.058C98.838 116.189 100.737 113.622 103.024 111.476C104.637 109.952 106.608 108.153 108.891 107.708C109.7 107.518 110.706 107.79 110.946 108.684C110.718 109.793 109.818 110.383 108.919 110.971C108.453 111.276 107.987 111.581 107.616 111.958C105.106 114.571 102.728 117.442 101.456 120.878C100.929 122.753 100.666 124.736 100.831 126.685C101.161 127.078 101.61 127.352 102.111 127.466C104.768 128.081 107.355 128.544 110.006 129.019C110.549 129.116 111.095 129.214 111.645 129.314C116.033 130.11 120.766 129.531 125.428 128.961C127.318 128.731 129.195 128.501 131.034 128.365C133.644 128.309 136.229 127.866 138.708 127.048C140.023 126.96 141.316 126.7 142.61 126.439C143.507 126.258 144.405 126.077 145.311 125.954C147.663 125.664 150.186 124.771 152.428 123.978L152.715 123.876C153.89 123.306 155.07 122.959 156.244 122.614C157.587 122.22 158.923 121.827 160.237 121.105C160.645 120.881 161.074 120.673 161.497 120.466C162.547 119.953 163.6 119.438 164.46 118.647C165.704 118.175 166.861 117.524 168.021 116.871C168.444 116.633 168.867 116.395 169.294 116.166C169.979 115.757 170.684 115.378 171.388 114.999C172.885 114.194 174.381 113.389 175.689 112.296C176.461 111.655 177.278 111.071 178.094 110.487C179.394 109.557 180.694 108.627 181.811 107.471C182.185 107.072 182.574 106.685 182.964 106.296C184.026 105.239 185.091 104.178 185.858 102.884C186.216 102.287 185.807 101.694 185.449 101.176C185.377 101.071 185.306 100.968 185.245 100.87C183.734 98.768 181.51 97.575 179.209 96.649C178.36 96.3064 177.458 96.2079 176.557 96.1094C176.08 96.0573 175.604 96.0052 175.135 95.917C173.959 95.608 173.781 93.888 174.83 93.307C177.028 92.009 179.705 92.762 181.901 93.664C184.231 94.4351 186.066 95.9951 187.911 97.563C188.332 97.9207 188.753 98.2788 189.181 98.628C189.829 97.432 190.592 95.799 191.008 94.509C190.917 94.3899 190.826 94.2699 190.736 94.1498C190.144 93.3654 189.546 92.573 188.779 91.946C188.514 91.7282 188.25 91.5058 187.985 91.2829C186.542 90.0674 185.078 88.8336 183.263 88.221C182.254 87.8963 181.216 87.6836 180.177 87.471C179.341 87.2998 178.505 87.1286 177.684 86.899C176.978 86.743 176.282 86.048 176.564 85.284C177.18 84.185 178.615 84.085 179.74 84.124C180.005 84.1494 180.273 84.1724 180.54 84.1955C181.995 84.3209 183.465 84.4476 184.834 84.979C187.241 85.7848 189.219 87.4101 191.148 88.9947L191.35 89.161C191.36 86.05 190.862 83.246 189.995 80.24C189.681 79.1171 189.436 77.9731 189.191 76.829C188.731 74.68 188.27 72.5306 187.352 70.52C186.59 68.8715 185.138 67.7205 183.744 66.6156L183.545 66.458C181.772 65.022 179.701 64.011 177.594 63.148C173.914 61.9607 170.039 61.6853 166.201 61.4124C165.814 61.3849 165.427 61.3574 165.041 61.329C163.01 61.0602 160.976 61.1995 158.942 61.3387C157.811 61.4161 156.681 61.4935 155.551 61.501Z" fill="white"/>
<path d="M215.197 68.3571C216.902 68.3631 218.604 68.5801 220.285 68.8701C220.758 71.2541 219.931 73.3981 219.732 75.7461C219.507 77.4101 219.415 79.2251 219.094 80.8771C218.794 83.3201 218.286 85.7521 218.273 88.2161C217.294 88.2591 216.283 88.5351 215.326 88.0511C213.791 87.2721 212.383 86.2631 210.765 85.6651C211.404 80.5921 212.646 75.6241 214.218 70.7641C214.516 69.9601 214.59 68.9961 215.197 68.3571Z" fill="white"/>
<path d="M209.935 90.6429C211.773 91.7879 213.709 92.9459 215.938 93.0219C214.896 97.3089 214.671 101.734 214.186 106.104C213.577 109.687 213.108 113.313 211.981 116.783C211.676 117.691 211.414 118.613 211.198 119.546C209.399 119.116 207.555 118.922 205.737 118.612C205.899 112.777 206.453 106.952 207.328 101.183C208.305 97.6869 208.402 93.9769 209.935 90.6429Z" fill="white"/>
<path d="M23.234 95.6719C24.481 93.8369 26.475 92.7359 28.414 91.7729C28.51 95.4279 28.789 99.0769 28.788 102.731C28.82 105.356 28.384 108.078 29.281 110.608C29.482 111.226 29.696 112.007 30.408 112.211C32.762 112.997 35.281 112.952 37.722 113.212C39.231 113.386 40.755 113.556 42.28 113.409C43.296 113.276 44.248 112.347 44.175 111.282C44.039 108.438 43.897 105.597 43.897 102.753C43.886 99.2579 43.493 95.7709 43.648 92.2739C46.111 93.2439 47.856 95.3469 49.442 97.3599C51.306 102.093 53.466 107.109 52.546 112.308C52.229 115.653 49.002 117.426 47.047 119.79C48.393 122.253 50.074 124.495 51.897 126.615C55.09 130.883 58.161 135.246 61.482 139.419C58.727 140.952 56.099 142.894 54.186 145.423C52.66 143.751 51.492 141.79 49.909 140.171C48.506 138.715 47.38 137.016 45.915 135.615C43.128 132.8 40.843 129.532 37.954 126.817C36.968 125.924 36.946 124.247 35.673 123.655C33.384 122.94 30.607 123.425 28.71 121.701C27.126 120.327 25.378 119.096 24.065 117.444C22.924 115.69 21.761 113.926 20.973 111.979C20.248 110.354 20.113 108.554 19.957 106.809C20.207 102.926 21.137 98.9979 23.234 95.6719Z" fill="white"/>
<path d="M197.906 124.556C199.58 123.731 201.474 123.961 203.275 124.02C206.339 124.281 209.233 125.399 212.203 126.115C213.979 130.508 214.385 135.546 212.693 140.027C211.185 143.542 209.351 146.977 206.707 149.783C204.574 151.967 201.889 153.477 199.273 155.012C197.91 155.805 196.392 156.514 194.767 156.342C193.677 155.696 192.712 154.871 191.741 154.071C190.159 152.864 189.149 151.101 188.174 149.412C187.219 147.798 187.158 145.893 186.733 144.121C186.337 141.323 186.822 138.431 188.063 135.894C188.972 134.1 189.459 132.054 190.92 130.592C192.631 128.004 194.837 125.508 197.906 124.556Z" fill="white"/>
<path d="M72.099 142.455C73.905 142.247 75.719 142.154 77.528 141.963C80.882 141.975 83.756 143.904 86.717 145.209C88.478 146.246 89.586 148.04 91.073 149.393C93.08 151.082 93.658 153.78 94.49 156.141C94.845 159.975 96.008 164.045 94.347 167.745C93.169 170.224 92.652 173.054 90.826 175.187C89.593 176.186 88.161 176.908 86.71 177.534C84.863 178.327 82.819 177.893 80.884 177.895C77.286 177.934 74.236 175.686 71.655 173.437C68.983 171.122 66.891 168.19 65.366 165.025C64.317 162.819 63.372 160.506 63.127 158.059C62.924 156.247 62.944 154.418 62.981 152.599C63.028 149.952 63.954 147.434 64.792 144.952C67.204 144.062 69.582 143.023 72.099 142.455Z" fill="white"/>
<path d="M93.932 180.939C96.215 182.376 98.118 184.296 100.201 185.989C101.768 187.384 103.28 188.965 104.161 190.892C104.578 192.658 104.755 194.822 103.385 196.249C101.969 197.522 99.778 198.33 97.97 197.394C96.077 196.427 94.275 195.197 92.939 193.532C91.188 191.234 89.245 189.087 87.625 186.692C88.947 185.869 90.373 185.143 91.422 183.968C92.301 182.994 93.111 181.965 93.932 180.939Z" fill="white"/>
<path d="M145.713 94.9861C146.311 94.5361 147.114 94.5501 147.83 94.4771C149.004 94.3081 149.988 95.3781 150.175 96.4541C150.654 98.6521 152.156 100.395 153.34 102.242C154.25 103.678 156.141 105.209 157.803 104.621C159.744 103.933 161.001 102.209 162.695 101.05C163.911 100.852 164.135 102.449 164.369 103.309C164.466 105.039 162.571 105.675 161.515 106.668C159.869 108.208 157.613 109.267 155.32 108.839C155.625 110.865 155.392 112.935 154.644 114.842C153.53 116.49 152.091 118.358 149.902 118.438C148.105 118.42 146.046 118.314 144.754 116.9C143.18 115.15 141.871 112.984 141.872 110.564C138.543 110.514 134.988 110.835 131.976 109.133C131.076 108.151 130.245 106.574 131.083 105.321C132.4 103.986 134.128 105.577 135.583 105.81C137.597 106.131 140.039 106.639 141.659 104.96C143.27 103.051 144.284 100.708 145.046 98.3691C145.449 97.1231 144.799 95.9041 145.713 94.9861Z" fill="black"/>
<path d="M148.268 102.727C149.186 104.131 150.135 105.519 150.976 106.973C151.377 107.594 151.368 108.351 151.411 109.065C151.464 110.329 151.522 111.686 150.878 112.829C150.146 113.91 148.339 114.259 147.403 113.241C146.561 112.327 145.87 111.21 145.588 109.993C145.298 109.094 145.984 108.345 146.362 107.595C147.252 106.082 147.804 104.406 148.268 102.727Z" fill="white"/>
<path d="M96.699 189.103C98.189 188.909 99.379 189.985 100.464 190.831C101.148 191.325 101.215 192.317 100.861 193.026C100.238 193.909 98.951 193.643 98.221 193.057C97.085 192.1 96.109 190.631 96.699 189.103Z" fill="black"/>
<path d="M149.672 73.3827C151.405 72.4417 153.622 73.3417 154.613 74.9337C155.248 76.0817 155.645 77.3717 155.842 78.6647C155.813 80.3197 155.49 82.0357 154.679 83.5017C153.985 84.8247 152.307 85.4397 150.946 84.7317C149.158 83.7927 147.282 82.2107 147.19 80.0387C147.12 78.6307 146.873 77.1697 147.317 75.7947C147.776 74.7437 148.64 73.8787 149.672 73.3827ZM122.201 78.7467C124.018 78.2257 125.78 79.3007 126.873 80.6777C127.939 83.1577 128.382 86.0807 127.338 88.6377C126.027 90.6907 122.624 91.5957 120.712 89.8657C119.061 88.0257 118.861 85.3907 119.067 83.0397C119.13 81.1537 120.52 79.4807 122.201 78.7467Z" fill="black"/>
<path d="M126.873 80.6777C125.78 79.3007 124.018 78.2257 122.201 78.7467C120.52 79.4807 119.13 81.1537 119.067 83.0397C118.861 85.3907 119.061 88.0257 120.712 89.8657C122.624 91.5957 126.027 90.6907 127.338 88.6377C128.382 86.0807 127.939 83.1577 126.873 80.6777Z" fill="black"/>
</svg>
