<svg width="832" height="437" viewBox="0 0 832 437" fill="none" xmlns="http://www.w3.org/2000/svg">
<path d="M127.4 1.49991C126.7 1.99991 124.5 6.49991 122.6 11.4999C116.9 26.5999 112.6 35.1999 104.8 47.1999C92.6 65.7999 81.2 77.4999 59.8 93.1999C54.7 96.9999 33.9 108 32 108C31.4 108 29 108.8 26.7 109.9C24.4 110.9 21.8 112 20.9 112.3C19.2 112.8 15 125.6 15 130.1C15 133.5 16.5 134.6 22 135.3C28.7 136 37.4 139.7 42.8 144C47 147.2 47.9 148.7 49.3 153.6C50.8 159.4 52.6 193.9 52.4 213C52.3 217.7 52 243.8 51.8 271C51.3 318.9 50.5 335 48.9 335C48.5 335 45.5 337.2 42.3 339.8C37 344.2 24.9 352.1 14.3 358.1C4.9 363.5 0 367.3 0 369.5C0 372.5 9.4 388.4 11.4 388.8C12.4 389 13.9 388.5 14.8 387.7C18.5 384.4 29.9 377.2 35.8 374.3L42 371.3L50.8 379.4C55.6 383.9 63.4 390.6 68 394.4C72.7 398.3 83.3 408 91.5 416C99.8 424.1 108.5 432.1 110.8 433.8L115.2 436.9L118.9 434.5C122.7 431.9 130.8 428.5 142.4 424.4C146.1 423.1 152 420.5 155.4 418.6C158.7 416.8 164.9 413.8 169 412C177.7 408.3 205.4 393.7 209 391L211.5 389.1L207 380C204.5 374.9 202.2 370.6 201.9 370.4C201.5 370.2 196.9 372.1 191.6 374.5L181.9 379.1L171.4 369.1C165.6 363.7 157.3 355.3 152.9 350.6L144.9 342.1L145.9 316.8C148.4 256.8 148.9 236.1 148.4 214C147.8 190 149.2 125.5 150.3 124.4C150.6 124.1 161.4 123.6 174.2 123.3C187 123.1 198.4 122.7 199.5 122.4C201.9 121.8 214.6 107.5 222.4 96.5999C231.7 83.5999 234.5 84.4999 187.7 84.2999C165.8 84.2999 147.5 83.8999 147.2 83.4999C146.8 83.0999 146.5 64.2999 146.6 41.6999L146.7 0.499908H137.7C132.8 0.499908 128.1 0.899902 127.4 1.49991Z" fill="black"/>
<path d="M731.7 0.800079C730.7 1.00009 729 4.1001 727.1 8.90009C719 29.8001 715.5 36.7001 704.7 52.5001C694.4 67.5001 681.9 79.8001 662 94.2001C657.3 97.6001 637.1 108 635 108.1C634.2 108.1 631.1 109.3 628.1 110.8C623.1 113.3 622.5 113.9 620.8 119C619.7 122.2 619 126.6 619.2 129.5L619.5 134.5L625 135.1C632 136 637.9 138.1 643.3 141.9C649 145.8 651.4 148.8 652.8 153.5C654.5 159 656.1 210.3 655.4 233.5C654.5 258.7 654.4 275.7 654.9 291.5C655.2 298.6 655 311.2 654.5 319.3C653.8 332.2 653.4 334.2 651.8 335.1C650.8 335.6 647.8 338 645.2 340.3C642.5 342.6 636.3 346.9 631.4 349.8C606.2 364.9 603 367.2 603 369.5C603 371.9 611.8 386.9 614 388.3C615.2 389 617.9 387.6 625 382.8C630.2 379.3 636.1 375.8 638 375C639.9 374.3 641.9 373.3 642.4 372.8C644.4 371.1 646.7 372.3 653.5 378.6C657.4 382.2 665.7 389.5 672 394.9C678.3 400.3 690.6 411.6 699.2 419.8C707.9 428.1 715.8 435.3 716.8 435.9C718.2 436.7 719.5 436.3 722.1 434.5C724 433.1 730.5 430.2 736.5 428C742.6 425.8 754.5 420.6 763 416.6C771.5 412.5 781 408.1 784 406.7C787 405.3 791.3 403.1 793.5 401.9C808.7 393.3 811.7 391.6 813.2 390.3C814.7 389 814.5 388.1 810.3 379.7C807.8 374.6 805.6 370.3 805.4 370.1C805.3 369.9 803.2 370.7 800.8 371.8C798.4 372.9 793.9 375 790.6 376.4L784.7 379L776.3 370.8C771.6 366.2 763.6 358.2 758.3 353L748.9 343.5L749.4 321.5C749.7 309.4 750.5 285.1 751.1 267.5C751.7 249.9 751.9 228.7 751.5 220.4C750.8 203.5 752.8 126 754 124.7C754.9 123.7 761.8 123.4 786.6 123.2L803.7 123L812.4 113.2C820.9 103.5 828.5 93.7001 830.9 89.2001C833.7 84.0001 833.2 83.9001 790.8 84.1001C766.8 84.2001 751.4 83.8001 750.8 83.2001C749.8 82.2001 749.2 38.7001 750 15.1001L750.4 0.600098H741.9C737.2 0.500092 732.6 0.600098 731.7 0.800079Z" fill="black"/>
<path d="M441.2 26.1998C436.4 31.5998 430.5 38.3998 428.1 41.2998C425.7 44.1998 420.1 50.3998 415.6 55.0998C411.2 59.7998 403.7 68.0998 399 73.4998C391.4 82.2998 378.8 96.2998 362 114.5C359 117.8 353.4 123.7 349.5 127.6C345.7 131.5 336.9 140.9 330 148.5C323.1 156.1 314.5 165.5 310.8 169.4C307.2 173.3 302.9 178.1 301.3 180.1C296.3 186.5 283.7 200.2 271.5 213C264.8 219.9 257.5 227.6 255.2 230.2L251 235L251.2 257.7L251.5 280.4L256.5 281.7C259.4 282.5 265.4 282.9 271 282.8C276.2 282.7 297.4 283.1 318 283.8C338.6 284.5 367.9 285.4 383 285.8C400.4 286.2 410.4 286.9 410.3 287.5C408.2 301.1 407.8 315.4 408.4 350.1C408.8 371.4 409.4 390 409.9 391.5C410.3 393.1 411.5 394.5 412.5 394.8C415.1 395.3 460.8 395.4 478.2 394.9C485.7 394.7 492.3 394 492.9 393.5C494 392.3 496 338.8 496 307.9C496 288.1 496.2 285.1 497.6 284.6C498.5 284.3 503.3 283.9 508.3 283.9C513.4 283.8 521.7 283.5 526.9 283.1L536.3 282.5L540 272C547.1 252.3 550.8 241.5 553.5 232.5C555 227.5 557.3 220.3 558.7 216.5C562.7 205.1 562.5 204.7 551.6 201.8C547.1 200.6 546.6 200.7 545.6 202.4C538.9 213.8 530.5 219.6 515.4 223.3C509.4 224.7 503.1 226.2 501.4 226.5L498.2 227.1L497.5 215.8C497.2 209.6 497.1 173.7 497.5 136C498.2 56.4998 498.1 26.9998 497.4 21.6998C496.9 18.4998 496.5 17.9998 494.2 17.9998C491.3 18.0998 468 17.1998 456.7 16.5998L449.9 16.2998L441.2 26.1998ZM412.6 106.7C411.1 123.2 408 178 407.7 195.5C407.6 200.4 407.9 207.8 408.4 211.8L409.2 219.1L398.4 218.8C392.4 218.6 368.3 218.9 344.8 219.4C317.3 220 302 220 302 219.3C302 218.8 308.6 211.8 316.8 203.9C329.2 191.6 354.8 164 369.5 147C371.7 144.5 376.8 138.9 381 134.5C392.5 122.2 410.5 102 410.8 100.9C411 100.4 411.6 99.9998 412.2 99.9998C412.8 99.9998 413 102.4 412.6 106.7Z" fill="black"/>
</svg>
